<?xml version="1.0" encoding="UTF-8"?>
<svg xmlns="http://www.w3.org/2000/svg" viewBox="0 0 256 256">
  <defs>
    <linearGradient id="g" x1="0" y1="0" x2="1" y2="1">
      <stop offset="0" stop-color="#2b7cd3"/>
      <stop offset="1" stop-color="#56a3ff"/>
    </linearGradient>
  </defs>
  <rect width="256" height="256" rx="48" fill="url(#g)"/>
  <g fill="#ffffff">
    <path d="M156 84c-14-11-33-11-47 0-10 8-17 21-17 36 0 15 7 28 17 36 7 6 16 9 25 9 9 0 18-3 25-9 10-8 17-21 17-36 0-15-7-28-17-36zm-25 58c-12 0-22-10-22-22s10-22 22-22 22 10 22 22-10 22-22 22z"/>
    <rect x="72" y="168" width="112" height="20" rx="10" opacity="0.9"/>
  </g>
</svg>